<svg xmlns="http://www.w3.org/2000/svg" xmlns:xlink="http://www.w3.org/1999/xlink" width="100" zoomAndPan="magnify" viewBox="0 0 75 74.999997" height="100" preserveAspectRatio="xMidYMid meet" version="1.0"><defs><clipPath id="id1"><path d="M 13 17.28125 L 62.941406 17.28125 L 62.941406 30 L 13 30 Z M 13 17.28125 " clip-rule="nonzero"/></clipPath><clipPath id="id2"><path d="M 13 17.28125 L 22 17.28125 L 22 27 L 13 27 Z M 13 17.28125 " clip-rule="nonzero"/></clipPath><clipPath id="id3"><path d="M 13 45 L 62.941406 45 L 62.941406 57.78125 L 13 57.78125 Z M 13 45 " clip-rule="nonzero"/></clipPath></defs><g clip-path="url(#id1)"><path fill="#e9b994" d="M 53.035156 18.617188 C 53.753906 18.617188 54.75 18.679688 56.023438 18.796875 C 59.691406 19.507812 61.484375 21.160156 61.40625 23.753906 C 61.078125 25.28125 60.378906 26.25 59.308594 26.65625 C 59.21875 26.691406 59.140625 26.742188 59.074219 26.808594 C 58.667969 27.085938 56.921875 27.410156 53.835938 27.777344 C 53.195312 27.839844 52.421875 27.878906 51.515625 27.890625 C 50.769531 27.898438 50.003906 27.902344 49.210938 27.902344 C 46.773438 27.902344 44.105469 27.867188 41.207031 27.796875 C 41.203125 27.796875 41.195312 27.796875 41.191406 27.796875 C 41.179688 27.796875 41.167969 27.796875 41.160156 27.796875 C 36.652344 28.011719 33.792969 28.121094 32.589844 28.121094 C 32.507812 28.121094 32.429688 28.121094 32.363281 28.121094 L 26.945312 27.914062 C 25.394531 27.691406 22.210938 27.382812 17.390625 26.988281 C 17.371094 26.984375 17.351562 26.984375 17.335938 26.984375 C 17.332031 26.984375 17.332031 26.984375 17.328125 26.984375 C 17.324219 26.984375 17.320312 26.984375 17.316406 26.984375 C 16.632812 26.984375 16.023438 26.378906 15.492188 25.171875 C 15.476562 25.140625 15.460938 25.109375 15.441406 25.082031 C 14.835938 24.121094 14.660156 23.125 14.917969 22.097656 C 15.148438 21.3125 15.535156 20.796875 16.078125 20.554688 C 16.085938 20.550781 16.09375 20.546875 16.101562 20.539062 C 17.441406 19.867188 18.425781 19.53125 19.0625 19.53125 C 19.136719 19.53125 19.207031 19.535156 19.273438 19.542969 C 19.308594 19.546875 19.339844 19.550781 19.371094 19.550781 C 19.613281 19.550781 19.835938 19.417969 19.949219 19.210938 C 23.097656 19.03125 25.589844 18.9375 27.421875 18.929688 L 41.574219 18.925781 C 41.582031 18.925781 41.585938 18.925781 41.59375 18.925781 L 52.488281 18.632812 C 52.496094 18.632812 52.503906 18.632812 52.511719 18.632812 C 52.664062 18.621094 52.839844 18.617188 53.035156 18.617188 Z M 53.027344 17.28125 C 52.8125 17.28125 52.617188 17.289062 52.445312 17.296875 L 41.566406 17.59375 L 27.417969 17.59375 C 25.222656 17.601562 22.105469 17.734375 18.066406 17.988281 C 17.761719 18.007812 17.515625 18.226562 17.457031 18.515625 C 16.882812 18.703125 16.234375 18.980469 15.515625 19.339844 C 14.609375 19.757812 13.980469 20.554688 13.640625 21.730469 C 13.636719 21.738281 13.636719 21.746094 13.632812 21.753906 C 13.277344 23.144531 13.5 24.476562 14.292969 25.757812 C 15.054688 27.464844 16.0625 28.316406 17.308594 28.320312 C 22.121094 28.714844 25.285156 29.023438 26.789062 29.238281 C 26.8125 29.242188 26.835938 29.246094 26.859375 29.246094 L 32.320312 29.453125 C 32.324219 29.453125 32.328125 29.453125 32.332031 29.453125 C 32.40625 29.457031 32.488281 29.457031 32.582031 29.457031 C 33.8125 29.457031 36.683594 29.347656 41.199219 29.132812 C 44.097656 29.203125 46.769531 29.238281 49.210938 29.238281 C 50.007812 29.238281 50.78125 29.234375 51.53125 29.226562 L 51.535156 29.226562 C 52.484375 29.214844 53.296875 29.171875 53.976562 29.105469 C 53.980469 29.105469 53.984375 29.105469 53.988281 29.105469 C 57.332031 28.707031 59.289062 28.296875 59.859375 27.882812 C 59.871094 27.878906 59.878906 27.871094 59.890625 27.863281 C 61.367188 27.257812 62.3125 25.957031 62.71875 23.96875 C 62.726562 23.933594 62.730469 23.894531 62.730469 23.859375 C 62.867188 20.460938 60.703125 18.332031 56.242188 17.480469 C 56.222656 17.476562 56.199219 17.472656 56.179688 17.472656 C 54.851562 17.34375 53.800781 17.28125 53.027344 17.28125 Z M 53.027344 17.28125 " fill-opacity="1" fill-rule="nonzero"/></g><g clip-path="url(#id2)"><path fill="#e9b994" d="M 14.832031 23.652344 C 14.925781 23.714844 14.992188 23.789062 15.03125 23.871094 C 14.984375 23.785156 14.914062 23.710938 14.832031 23.652344 Z M 19.160156 17.769531 C 17.019531 17.769531 15.363281 18.578125 14.191406 20.191406 C 13.550781 20.878906 13.308594 21.71875 13.46875 22.722656 C 13.472656 22.722656 13.472656 22.726562 13.472656 22.726562 C 13.625 23.621094 13.734375 24.164062 13.796875 24.359375 C 13.820312 24.425781 13.847656 24.484375 13.878906 24.535156 C 14.246094 25.289062 14.5625 25.789062 14.820312 26.046875 C 14.949219 26.171875 15.117188 26.238281 15.285156 26.238281 C 15.460938 26.238281 15.632812 26.171875 15.761719 26.039062 C 16.019531 25.773438 16.015625 25.351562 15.753906 25.09375 C 15.597656 24.941406 15.363281 24.546875 15.050781 23.910156 C 15.050781 23.90625 15.050781 23.90625 15.050781 23.902344 C 15.003906 23.734375 14.914062 23.269531 14.785156 22.507812 C 14.691406 21.929688 14.824219 21.457031 15.183594 21.085938 C 15.207031 21.0625 15.226562 21.035156 15.246094 21.007812 C 16.152344 19.742188 17.46875 19.109375 19.199219 19.109375 C 19.671875 19.109375 20.171875 19.15625 20.707031 19.25 C 20.746094 19.257812 20.78125 19.261719 20.820312 19.261719 C 21.136719 19.261719 21.417969 19.03125 21.476562 18.707031 C 21.539062 18.34375 21.296875 18 20.933594 17.933594 C 20.308594 17.824219 19.71875 17.769531 19.160156 17.769531 Z M 19.160156 17.769531 " fill-opacity="1" fill-rule="nonzero"/></g><path fill="#e9b994" d="M 53.035156 18.546875 C 52.839844 18.546875 52.660156 18.550781 52.503906 18.558594 C 52.5 18.558594 52.492188 18.558594 52.488281 18.558594 L 41.589844 18.855469 C 41.585938 18.855469 41.582031 18.855469 41.574219 18.855469 L 27.421875 18.855469 C 25.835938 18.863281 23.761719 18.933594 21.195312 19.070312 C 21.179688 19.070312 21.167969 19.074219 21.15625 19.082031 C 21.058594 19.148438 20.945312 19.1875 20.820312 19.1875 C 20.789062 19.1875 20.753906 19.183594 20.71875 19.179688 C 20.589844 19.15625 20.460938 19.136719 20.335938 19.117188 C 20.332031 19.117188 20.328125 19.117188 20.324219 19.117188 C 20.324219 19.117188 20.320312 19.117188 20.320312 19.117188 C 20.195312 19.125 20.070312 19.132812 19.945312 19.140625 C 19.917969 19.140625 19.898438 19.15625 19.886719 19.179688 C 19.78125 19.359375 19.585938 19.480469 19.371094 19.480469 C 19.34375 19.480469 19.3125 19.476562 19.285156 19.472656 C 19.214844 19.460938 19.140625 19.457031 19.0625 19.457031 C 18.414062 19.457031 17.417969 19.796875 16.070312 20.476562 C 16.0625 20.480469 16.054688 20.484375 16.046875 20.488281 C 15.484375 20.742188 15.085938 21.273438 14.851562 22.078125 C 14.847656 22.082031 14.847656 22.082031 14.847656 22.085938 C 14.796875 22.289062 14.761719 22.492188 14.746094 22.691406 L 14.746094 22.695312 C 14.746094 22.703125 14.746094 22.707031 14.746094 22.714844 C 14.859375 23.367188 14.9375 23.765625 14.980469 23.921875 C 14.980469 23.929688 14.984375 23.933594 14.988281 23.9375 C 14.988281 23.941406 14.988281 23.941406 14.988281 23.941406 C 15.304688 24.585938 15.542969 24.984375 15.703125 25.144531 C 15.898438 25.339844 15.933594 25.636719 15.800781 25.863281 C 15.789062 25.886719 15.789062 25.914062 15.800781 25.9375 C 15.804688 25.9375 15.804688 25.941406 15.804688 25.941406 C 16.257812 26.683594 16.761719 27.058594 17.316406 27.058594 C 17.320312 27.058594 17.324219 27.058594 17.328125 27.058594 C 17.332031 27.058594 17.335938 27.058594 17.335938 27.058594 C 17.351562 27.058594 17.367188 27.058594 17.382812 27.058594 C 22.203125 27.457031 25.386719 27.761719 26.933594 27.984375 C 26.9375 27.984375 26.941406 27.984375 26.945312 27.984375 L 32.359375 28.191406 C 32.359375 28.191406 32.359375 28.191406 32.363281 28.191406 C 32.429688 28.191406 32.507812 28.191406 32.589844 28.191406 C 33.796875 28.191406 36.652344 28.085938 41.164062 27.867188 C 41.171875 27.867188 41.179688 27.867188 41.191406 27.867188 C 41.195312 27.867188 41.199219 27.867188 41.207031 27.867188 C 44.105469 27.941406 46.773438 27.976562 49.210938 27.976562 C 50.003906 27.976562 50.769531 27.972656 51.515625 27.964844 C 52.425781 27.949219 53.203125 27.914062 53.84375 27.847656 L 53.839844 27.847656 L 53.84375 27.847656 C 56.929688 27.480469 58.683594 27.15625 59.109375 26.871094 L 59.105469 26.871094 C 59.113281 26.867188 59.117188 26.863281 59.125 26.859375 C 59.183594 26.800781 59.253906 26.753906 59.332031 26.726562 C 60.425781 26.308594 61.140625 25.328125 61.472656 23.78125 C 61.476562 23.773438 61.476562 23.765625 61.476562 23.757812 C 61.554688 21.121094 59.746094 19.445312 56.042969 18.726562 C 56.039062 18.726562 56.035156 18.726562 56.03125 18.726562 C 54.753906 18.605469 53.753906 18.546875 53.035156 18.546875 Z M 53.035156 18.546875 " fill-opacity="1" fill-rule="nonzero"/><path fill="#f0d0b6" d="M 51.878906 32 C 52.597656 32 53.59375 32.058594 54.871094 32.179688 C 58.535156 32.886719 60.328125 34.539062 60.25 37.136719 C 59.925781 38.664062 59.226562 39.632812 58.152344 40.039062 C 58.066406 40.074219 57.984375 40.125 57.917969 40.191406 C 57.511719 40.46875 55.769531 40.792969 52.683594 41.160156 C 52.042969 41.222656 51.269531 41.261719 50.359375 41.273438 C 49.617188 41.28125 48.847656 41.285156 48.054688 41.285156 C 45.617188 41.285156 42.949219 41.25 40.050781 41.179688 C 40.046875 41.175781 40.042969 41.175781 40.035156 41.175781 C 40.027344 41.175781 40.015625 41.179688 40.003906 41.179688 C 35.496094 41.394531 32.640625 41.503906 31.4375 41.503906 C 31.351562 41.503906 31.277344 41.503906 31.207031 41.5 L 25.789062 41.292969 C 24.238281 41.074219 21.054688 40.765625 16.234375 40.367188 C 16.21875 40.367188 16.199219 40.367188 16.179688 40.367188 C 16.179688 40.367188 16.175781 40.367188 16.175781 40.367188 C 16.167969 40.367188 16.164062 40.367188 16.160156 40.367188 C 15.476562 40.367188 14.867188 39.761719 14.335938 38.550781 C 14.324219 38.523438 14.304688 38.492188 14.289062 38.464844 C 13.679688 37.503906 13.503906 36.507812 13.765625 35.480469 C 13.992188 34.695312 14.378906 34.179688 14.921875 33.933594 C 14.933594 33.929688 14.941406 33.925781 14.949219 33.921875 C 16.285156 33.25 17.273438 32.910156 17.90625 32.910156 C 17.984375 32.910156 18.054688 32.917969 18.121094 32.925781 C 18.152344 32.929688 18.183594 32.933594 18.21875 32.933594 C 18.460938 32.933594 18.679688 32.800781 18.796875 32.59375 C 21.945312 32.414062 24.433594 32.316406 26.265625 32.308594 L 40.421875 32.308594 C 40.425781 32.308594 40.433594 32.308594 40.4375 32.308594 L 51.335938 32.015625 C 51.34375 32.015625 51.347656 32.015625 51.355469 32.011719 C 51.511719 32.003906 51.683594 32 51.878906 32 Z M 51.871094 30.664062 C 51.65625 30.664062 51.460938 30.667969 51.289062 30.679688 L 40.410156 30.972656 L 26.265625 30.976562 L 26.261719 30.976562 C 24.066406 30.984375 20.949219 31.117188 16.910156 31.367188 C 16.605469 31.386719 16.363281 31.609375 16.300781 31.894531 C 15.726562 32.085938 15.082031 32.363281 14.363281 32.722656 C 13.453125 33.140625 12.828125 33.9375 12.484375 35.113281 C 12.484375 35.121094 12.480469 35.128906 12.480469 35.136719 C 12.125 36.527344 12.34375 37.859375 13.140625 39.136719 C 13.902344 40.84375 14.90625 41.699219 16.15625 41.703125 C 20.96875 42.097656 24.128906 42.40625 25.636719 42.621094 C 25.660156 42.625 25.683594 42.625 25.707031 42.628906 L 31.164062 42.835938 C 31.167969 42.835938 31.175781 42.835938 31.179688 42.835938 C 31.253906 42.835938 31.335938 42.839844 31.425781 42.839844 C 32.65625 42.839844 35.53125 42.730469 40.042969 42.511719 C 42.945312 42.585938 45.613281 42.621094 48.054688 42.621094 C 48.851562 42.621094 49.625 42.617188 50.375 42.609375 L 50.378906 42.609375 C 51.328125 42.59375 52.140625 42.554688 52.820312 42.488281 C 52.824219 42.488281 52.828125 42.488281 52.835938 42.488281 C 56.175781 42.085938 58.132812 41.679688 58.707031 41.265625 C 58.714844 41.257812 58.726562 41.25 58.734375 41.242188 C 60.214844 40.636719 61.15625 39.339844 61.566406 37.347656 C 61.570312 37.3125 61.578125 37.277344 61.578125 37.242188 C 61.710938 33.839844 59.546875 31.714844 55.085938 30.863281 C 55.066406 30.859375 55.046875 30.855469 55.023438 30.851562 C 53.695312 30.726562 52.644531 30.664062 51.871094 30.664062 Z M 51.871094 30.664062 " fill-opacity="1" fill-rule="nonzero"/><path fill="#f0d0b6" d="M 13.679688 37.035156 C 13.769531 37.097656 13.835938 37.171875 13.878906 37.25 C 13.828125 37.167969 13.761719 37.09375 13.679688 37.035156 Z M 18.003906 31.152344 C 15.863281 31.152344 14.210938 31.957031 13.039062 33.574219 C 12.398438 34.257812 12.15625 35.101562 12.316406 36.101562 C 12.316406 36.105469 12.316406 36.109375 12.316406 36.109375 C 12.46875 37 12.578125 37.546875 12.644531 37.742188 C 12.664062 37.804688 12.691406 37.863281 12.722656 37.917969 C 13.09375 38.667969 13.40625 39.171875 13.667969 39.425781 C 13.796875 39.554688 13.964844 39.621094 14.132812 39.621094 C 14.304688 39.621094 14.476562 39.554688 14.605469 39.421875 C 14.863281 39.15625 14.859375 38.734375 14.597656 38.476562 C 14.441406 38.320312 14.210938 37.925781 13.898438 37.289062 C 13.898438 37.289062 13.894531 37.285156 13.894531 37.285156 C 13.847656 37.117188 13.757812 36.652344 13.628906 35.890625 C 13.535156 35.3125 13.671875 34.839844 14.027344 34.464844 C 14.050781 34.441406 14.074219 34.417969 14.09375 34.390625 C 14.996094 33.125 16.3125 32.492188 18.042969 32.492188 C 18.515625 32.492188 19.019531 32.539062 19.550781 32.632812 C 19.589844 32.640625 19.628906 32.640625 19.667969 32.640625 C 19.984375 32.640625 20.265625 32.414062 20.320312 32.089844 C 20.382812 31.726562 20.140625 31.378906 19.78125 31.316406 C 19.15625 31.207031 18.5625 31.152344 18.003906 31.152344 Z M 18.003906 31.152344 " fill-opacity="1" fill-rule="nonzero"/><path fill="#f0d0b6" d="M 51.878906 31.929688 C 51.683594 31.929688 51.507812 31.933594 51.351562 31.941406 C 51.34375 31.941406 51.339844 31.941406 51.332031 31.941406 L 40.4375 32.238281 C 40.429688 32.238281 40.425781 32.238281 40.421875 32.238281 L 26.269531 32.238281 C 26.265625 32.238281 26.265625 32.238281 26.265625 32.238281 C 24.683594 32.246094 22.605469 32.316406 20.039062 32.453125 C 20.027344 32.453125 20.011719 32.457031 20.003906 32.464844 C 19.90625 32.53125 19.789062 32.570312 19.667969 32.570312 C 19.632812 32.570312 19.597656 32.566406 19.5625 32.5625 C 19.433594 32.539062 19.304688 32.519531 19.179688 32.5 C 19.175781 32.5 19.171875 32.5 19.167969 32.5 C 19.167969 32.5 19.167969 32.5 19.164062 32.5 C 19.042969 32.507812 18.917969 32.515625 18.792969 32.519531 C 18.765625 32.523438 18.742188 32.539062 18.730469 32.558594 C 18.628906 32.742188 18.433594 32.859375 18.21875 32.859375 C 18.1875 32.859375 18.160156 32.859375 18.128906 32.855469 C 18.0625 32.84375 17.988281 32.839844 17.90625 32.839844 C 17.261719 32.839844 16.261719 33.179688 14.917969 33.859375 C 14.910156 33.863281 14.902344 33.867188 14.894531 33.867188 C 14.332031 34.125 13.929688 34.652344 13.695312 35.460938 C 13.695312 35.460938 13.695312 35.464844 13.695312 35.46875 C 13.640625 35.671875 13.609375 35.871094 13.589844 36.074219 C 13.589844 36.082031 13.589844 36.089844 13.59375 36.097656 C 13.703125 36.746094 13.78125 37.148438 13.824219 37.304688 C 13.828125 37.308594 13.828125 37.316406 13.832031 37.320312 C 13.832031 37.320312 13.832031 37.320312 13.832031 37.324219 C 14.148438 37.964844 14.386719 38.367188 14.546875 38.527344 C 14.746094 38.722656 14.777344 39.019531 14.648438 39.246094 C 14.636719 39.269531 14.636719 39.296875 14.648438 39.320312 C 14.648438 39.320312 14.648438 39.324219 14.652344 39.324219 C 15.101562 40.066406 15.605469 40.4375 16.160156 40.4375 C 16.167969 40.4375 16.171875 40.4375 16.175781 40.4375 C 16.175781 40.4375 16.179688 40.4375 16.179688 40.4375 C 16.195312 40.4375 16.214844 40.4375 16.230469 40.441406 C 21.046875 40.835938 24.230469 41.144531 25.78125 41.367188 C 25.785156 41.367188 25.785156 41.367188 25.789062 41.367188 L 31.203125 41.574219 C 31.207031 41.574219 31.207031 41.574219 31.207031 41.574219 C 31.277344 41.574219 31.351562 41.574219 31.4375 41.574219 C 32.640625 41.574219 35.5 41.46875 40.007812 41.25 C 40.015625 41.25 40.027344 41.25 40.035156 41.25 C 40.042969 41.25 40.046875 41.25 40.050781 41.25 C 42.949219 41.320312 45.617188 41.359375 48.054688 41.359375 C 48.847656 41.359375 49.617188 41.355469 50.359375 41.347656 C 50.359375 41.347656 50.363281 41.347656 50.363281 41.347656 C 51.269531 41.332031 52.046875 41.292969 52.6875 41.230469 L 52.691406 41.230469 C 55.773438 40.863281 57.527344 40.535156 57.953125 40.253906 C 57.957031 40.25 57.964844 40.246094 57.96875 40.242188 C 58.027344 40.183594 58.097656 40.136719 58.175781 40.105469 C 59.273438 39.691406 59.988281 38.710938 60.316406 37.160156 C 60.320312 37.152344 60.320312 37.144531 60.324219 37.136719 C 60.402344 34.503906 58.589844 32.828125 54.886719 32.109375 C 54.882812 32.109375 54.878906 32.109375 54.875 32.109375 C 53.597656 31.988281 52.601562 31.929688 51.878906 31.929688 Z M 51.878906 31.929688 " fill-opacity="1" fill-rule="nonzero"/><g clip-path="url(#id3)"><path fill="#e6dcca" d="M 52.832031 46.945312 C 53.550781 46.945312 54.546875 47.003906 55.824219 47.125 C 59.488281 47.832031 61.28125 49.484375 61.203125 52.082031 C 60.878906 53.609375 60.179688 54.578125 59.105469 54.984375 C 59.019531 55.019531 58.9375 55.070312 58.871094 55.136719 C 58.464844 55.414062 56.722656 55.734375 53.636719 56.105469 C 52.996094 56.167969 52.222656 56.207031 51.3125 56.21875 C 50.570312 56.226562 49.800781 56.230469 49.007812 56.230469 C 46.570312 56.230469 43.902344 56.195312 41.003906 56.121094 C 41 56.121094 40.996094 56.121094 40.988281 56.121094 C 40.980469 56.121094 40.96875 56.121094 40.957031 56.125 C 36.449219 56.339844 33.59375 56.449219 32.390625 56.449219 C 32.304688 56.449219 32.230469 56.449219 32.160156 56.445312 L 26.742188 56.238281 C 25.195312 56.019531 22.007812 55.710938 17.1875 55.3125 C 17.171875 55.3125 17.152344 55.3125 17.132812 55.3125 C 17.132812 55.3125 17.128906 55.3125 17.128906 55.3125 C 17.125 55.3125 17.117188 55.3125 17.113281 55.3125 C 16.429688 55.3125 15.820312 54.707031 15.289062 53.496094 C 15.277344 53.46875 15.261719 53.4375 15.242188 53.410156 C 14.632812 52.449219 14.457031 51.453125 14.71875 50.425781 C 14.949219 49.640625 15.332031 49.125 15.875 48.878906 C 15.886719 48.875 15.894531 48.871094 15.902344 48.867188 C 17.238281 48.195312 18.226562 47.855469 18.859375 47.855469 C 18.9375 47.855469 19.007812 47.863281 19.074219 47.871094 C 19.105469 47.875 19.136719 47.878906 19.171875 47.878906 C 19.414062 47.878906 19.632812 47.746094 19.75 47.539062 C 22.898438 47.359375 25.386719 47.261719 27.21875 47.253906 L 41.375 47.253906 C 41.378906 47.253906 41.386719 47.253906 41.390625 47.253906 L 52.289062 46.960938 C 52.296875 46.960938 52.300781 46.957031 52.308594 46.957031 C 52.464844 46.949219 52.636719 46.945312 52.832031 46.945312 Z M 52.824219 45.609375 C 52.609375 45.609375 52.414062 45.613281 52.242188 45.625 L 41.363281 45.917969 L 27.21875 45.921875 L 27.214844 45.921875 C 25.019531 45.929688 21.902344 46.058594 17.863281 46.3125 C 17.558594 46.332031 17.316406 46.554688 17.253906 46.839844 C 16.679688 47.03125 16.035156 47.308594 15.316406 47.667969 C 14.40625 48.085938 13.78125 48.882812 13.4375 50.058594 C 13.4375 50.066406 13.433594 50.074219 13.433594 50.082031 C 13.078125 51.472656 13.296875 52.804688 14.09375 54.082031 C 14.855469 55.789062 15.859375 56.644531 17.109375 56.648438 C 21.921875 57.042969 25.082031 57.351562 26.589844 57.566406 C 26.613281 57.570312 26.636719 57.570312 26.660156 57.574219 L 32.117188 57.78125 C 32.121094 57.78125 32.128906 57.78125 32.132812 57.78125 C 32.207031 57.78125 32.289062 57.785156 32.378906 57.785156 C 33.609375 57.785156 36.484375 57.675781 40.996094 57.457031 C 43.898438 57.53125 46.566406 57.566406 49.007812 57.566406 C 49.804688 57.566406 50.578125 57.5625 51.328125 57.554688 L 51.332031 57.554688 C 52.28125 57.539062 53.09375 57.5 53.773438 57.433594 C 53.777344 57.433594 53.78125 57.433594 53.789062 57.429688 C 57.128906 57.03125 59.085938 56.625 59.660156 56.210938 C 59.667969 56.203125 59.679688 56.195312 59.6875 56.1875 C 61.167969 55.582031 62.109375 54.285156 62.519531 52.292969 C 62.523438 52.257812 62.53125 52.222656 62.53125 52.1875 C 62.664062 48.785156 60.503906 46.660156 56.039062 45.808594 C 56.019531 45.804688 56 45.800781 55.976562 45.796875 C 54.648438 45.671875 53.597656 45.609375 52.824219 45.609375 Z M 52.824219 45.609375 " fill-opacity="1" fill-rule="nonzero"/></g><path fill="#e6dcca" d="M 14.632812 51.980469 C 14.722656 52.042969 14.789062 52.117188 14.832031 52.195312 C 14.78125 52.113281 14.714844 52.039062 14.632812 51.980469 Z M 18.957031 46.097656 C 16.816406 46.097656 15.164062 46.902344 13.992188 48.519531 C 13.351562 49.203125 13.109375 50.046875 13.269531 51.046875 C 13.269531 51.050781 13.269531 51.054688 13.269531 51.054688 C 13.421875 51.945312 13.53125 52.492188 13.597656 52.6875 C 13.617188 52.75 13.644531 52.808594 13.675781 52.863281 C 14.046875 53.613281 14.359375 54.117188 14.621094 54.371094 C 14.75 54.5 14.917969 54.566406 15.085938 54.566406 C 15.257812 54.566406 15.429688 54.496094 15.558594 54.363281 C 15.816406 54.101562 15.8125 53.679688 15.550781 53.421875 C 15.398438 53.265625 15.164062 52.871094 14.851562 52.234375 C 14.851562 52.234375 14.847656 52.230469 14.847656 52.230469 C 14.800781 52.0625 14.710938 51.597656 14.582031 50.835938 C 14.488281 50.257812 14.625 49.78125 14.980469 49.410156 C 15.003906 49.386719 15.027344 49.363281 15.046875 49.335938 C 15.949219 48.070312 17.265625 47.4375 19 47.4375 C 19.46875 47.4375 19.972656 47.484375 20.503906 47.578125 C 20.542969 47.585938 20.582031 47.585938 20.621094 47.585938 C 20.9375 47.585938 21.21875 47.359375 21.273438 47.035156 C 21.335938 46.671875 21.097656 46.324219 20.734375 46.261719 C 20.109375 46.152344 19.515625 46.097656 18.957031 46.097656 Z M 18.957031 46.097656 " fill-opacity="1" fill-rule="nonzero"/><path fill="#e6dcca" d="M 52.832031 46.871094 C 52.636719 46.871094 52.460938 46.878906 52.304688 46.886719 C 52.296875 46.886719 52.292969 46.886719 52.285156 46.886719 L 41.390625 47.183594 C 41.382812 47.183594 41.378906 47.183594 41.375 47.183594 L 27.222656 47.183594 C 27.21875 47.183594 27.21875 47.183594 27.21875 47.183594 C 25.636719 47.191406 23.558594 47.261719 20.992188 47.398438 C 20.980469 47.398438 20.964844 47.402344 20.957031 47.410156 C 20.859375 47.476562 20.742188 47.515625 20.621094 47.515625 C 20.585938 47.515625 20.550781 47.511719 20.515625 47.507812 C 20.386719 47.484375 20.257812 47.464844 20.132812 47.445312 C 20.128906 47.445312 20.125 47.445312 20.121094 47.445312 C 20.121094 47.445312 20.121094 47.445312 20.117188 47.445312 C 19.996094 47.453125 19.871094 47.460938 19.746094 47.464844 C 19.71875 47.46875 19.695312 47.484375 19.683594 47.503906 C 19.582031 47.6875 19.386719 47.804688 19.171875 47.804688 C 19.140625 47.804688 19.113281 47.804688 19.082031 47.800781 C 19.015625 47.789062 18.941406 47.785156 18.859375 47.785156 C 18.214844 47.785156 17.21875 48.125 15.871094 48.804688 C 15.863281 48.808594 15.855469 48.8125 15.847656 48.8125 C 15.285156 49.070312 14.882812 49.597656 14.648438 50.40625 C 14.648438 50.40625 14.648438 50.410156 14.648438 50.414062 C 14.59375 50.617188 14.5625 50.816406 14.542969 51.019531 C 14.542969 51.027344 14.542969 51.035156 14.546875 51.042969 C 14.65625 51.691406 14.734375 52.09375 14.777344 52.25 C 14.78125 52.253906 14.78125 52.261719 14.785156 52.265625 C 14.785156 52.265625 14.785156 52.265625 14.785156 52.269531 C 15.101562 52.910156 15.339844 53.3125 15.5 53.472656 C 15.699219 53.664062 15.730469 53.964844 15.601562 54.191406 C 15.589844 54.214844 15.589844 54.242188 15.601562 54.265625 C 15.601562 54.265625 15.601562 54.269531 15.605469 54.269531 C 16.054688 55.011719 16.558594 55.382812 17.113281 55.382812 C 17.121094 55.382812 17.125 55.382812 17.128906 55.382812 C 17.128906 55.382812 17.132812 55.382812 17.132812 55.382812 C 17.148438 55.382812 17.167969 55.382812 17.183594 55.386719 C 22 55.78125 25.183594 56.089844 26.734375 56.3125 C 26.738281 56.3125 26.738281 56.3125 26.742188 56.3125 L 32.15625 56.519531 C 32.160156 56.519531 32.160156 56.519531 32.160156 56.519531 C 32.230469 56.519531 32.304688 56.519531 32.390625 56.519531 C 33.59375 56.519531 36.453125 56.410156 40.960938 56.195312 C 40.96875 56.195312 40.980469 56.195312 40.988281 56.195312 C 40.996094 56.195312 41 56.195312 41.003906 56.195312 C 43.902344 56.265625 46.570312 56.304688 49.007812 56.304688 C 49.800781 56.304688 50.570312 56.300781 51.3125 56.292969 C 51.3125 56.292969 51.316406 56.292969 51.316406 56.292969 C 52.222656 56.277344 53 56.238281 53.640625 56.175781 L 53.644531 56.175781 C 56.726562 55.808594 58.480469 55.480469 58.90625 55.199219 C 58.910156 55.195312 58.917969 55.191406 58.921875 55.1875 C 58.980469 55.128906 59.050781 55.082031 59.128906 55.050781 C 60.226562 54.636719 60.941406 53.65625 61.273438 52.105469 L 61.269531 52.105469 C 61.273438 52.097656 61.273438 52.089844 61.277344 52.082031 C 61.355469 49.449219 59.542969 47.773438 55.839844 47.054688 C 55.835938 47.054688 55.832031 47.054688 55.828125 47.054688 C 54.550781 46.933594 53.554688 46.871094 52.832031 46.871094 Z M 52.832031 46.871094 " fill-opacity="1" fill-rule="nonzero"/></svg>