<svg xmlns="http://www.w3.org/2000/svg" xmlns:xlink="http://www.w3.org/1999/xlink" width="100" zoomAndPan="magnify" viewBox="0 0 75 74.999997" height="100" preserveAspectRatio="xMidYMid meet" version="1.0"><defs><clipPath id="id1"><path d="M 12.648438 6.449219 L 62.148438 6.449219 L 62.148438 74.699219 L 12.648438 74.699219 Z M 12.648438 6.449219 " clip-rule="nonzero"/></clipPath></defs><g clip-path="url(#id1)"><path fill="#342924" d="M 60.125 17.546875 L 59.101562 17.546875 L 56.398438 8.523438 C 56.015625 7.28125 54.898438 6.449219 53.601562 6.449219 L 21.1875 6.449219 C 19.890625 6.449219 18.769531 7.28125 18.386719 8.523438 L 15.683594 17.546875 L 14.660156 17.546875 C 13.582031 17.546875 12.695312 18.433594 12.695312 19.511719 L 12.695312 22.789062 C 12.695312 23.867188 13.582031 24.753906 14.660156 24.753906 L 15.5625 24.753906 L 20.75 71.519531 C 20.953125 73.332031 22.484375 74.699219 24.300781 74.699219 L 50.488281 74.699219 C 52.304688 74.699219 53.832031 73.332031 54.035156 71.519531 L 59.238281 24.753906 L 60.140625 24.753906 C 61.21875 24.753906 62.105469 23.867188 62.105469 22.789062 L 62.105469 19.511719 C 62.09375 18.433594 61.207031 17.546875 60.125 17.546875 Z M 19.984375 9 C 20.148438 8.46875 20.625 8.113281 21.1875 8.113281 L 53.613281 8.113281 C 54.171875 8.113281 54.652344 8.46875 54.816406 9 L 57.382812 17.546875 L 17.417969 17.546875 Z M 52.371094 71.339844 C 52.261719 72.308594 51.457031 73.035156 50.472656 73.035156 L 24.300781 73.035156 C 23.328125 73.035156 22.511719 72.308594 22.402344 71.339844 L 21.226562 60.832031 L 53.53125 60.832031 Z M 32.382812 45.023438 C 35.742188 40.875 40.710938 39.332031 43.46875 41.570312 C 46.226562 43.808594 45.75 48.980469 42.390625 53.132812 C 39.03125 57.28125 34.0625 58.824219 31.304688 56.585938 C 28.546875 54.347656 29.023438 49.171875 32.382812 45.023438 Z M 56.195312 36.96875 L 18.59375 36.96875 L 17.242188 24.765625 L 57.558594 24.765625 Z M 60.425781 22.789062 C 60.425781 22.953125 60.289062 23.089844 60.125 23.089844 L 14.660156 23.089844 C 14.496094 23.089844 14.359375 22.953125 14.359375 22.789062 L 14.359375 19.511719 C 14.359375 19.347656 14.496094 19.210938 14.660156 19.210938 L 60.113281 19.210938 C 60.277344 19.210938 60.414062 19.347656 60.414062 19.511719 L 60.414062 22.789062 Z M 31.714844 56.078125 C 31.726562 56.023438 32.667969 55.507812 33.652344 54.265625 C 34.703125 53.007812 35.78125 50.988281 36.886719 48.683594 C 37.992188 46.375 39.332031 44.546875 40.628906 43.507812 C 41.84375 42.472656 43.003906 42.144531 43.074219 42.089844 C 43.058594 42.144531 42.117188 42.660156 41.132812 43.902344 C 40.082031 45.160156 39.003906 47.179688 37.898438 49.488281 C 36.792969 51.792969 35.453125 53.621094 34.15625 54.660156 C 32.941406 55.699219 31.769531 56.023438 31.714844 56.078125 Z M 31.714844 56.078125 " fill-opacity="1" fill-rule="nonzero"/></g></svg>