<svg xmlns="http://www.w3.org/2000/svg" xmlns:xlink="http://www.w3.org/1999/xlink" width="100" zoomAndPan="magnify" viewBox="0 0 75 74.999997" height="100" preserveAspectRatio="xMidYMid meet" version="1.0"><path fill="#e6dcca" d="M 53.859375 59.019531 C 40.039062 71.695312 18.421875 75 8.753906 55.332031 C -0.914062 35.664062 17.015625 15.628906 34.292969 7.820312 C 51.570312 0.0078125 64.0625 5.988281 68.855469 14.179688 C 76.21875 26.757812 69.867188 44.34375 53.859375 59.019531 Z M 8.824219 36.855469 C 6.589844 44.613281 9.792969 50.191406 10.273438 49.902344 C 10.757812 49.613281 8.742188 44.277344 10.703125 37.441406 C 12.734375 30.367188 21.347656 20.183594 20.964844 19.773438 C 20.585938 19.363281 11.003906 29.261719 8.824219 36.855469 Z M 68.804688 33.097656 C 70.777344 26.050781 68.222656 21.066406 67.820312 21.332031 C 67.417969 21.605469 68.992188 26.390625 67.257812 32.601562 C 65.457031 39.023438 58.167969 48.367188 58.480469 48.734375 C 58.789062 49.09375 66.875 39.984375 68.804688 33.097656 Z M 44.410156 29.742188 C 36.199219 41.042969 30.722656 46.425781 24.207031 49.625 C 19.863281 51.761719 14.46875 54.007812 14.730469 55.464844 C 14.992188 56.921875 21.441406 56.953125 26.503906 54.472656 C 33.875 50.851562 39.878906 45.015625 48.652344 32.9375 C 56.546875 22.078125 64.589844 19.332031 64.371094 17.890625 C 64.15625 16.449219 53.699219 16.957031 44.410156 29.742188 Z M 44.410156 29.742188 " fill-opacity="1" fill-rule="nonzero"/></svg>