<svg xmlns="http://www.w3.org/2000/svg" xmlns:xlink="http://www.w3.org/1999/xlink" width="500" zoomAndPan="magnify" viewBox="0 0 375 187.499995" height="250" preserveAspectRatio="xMidYMid meet" version="1.0"><defs><g/><clipPath id="id1"><path d="M 13.214844 6.160156 L 128.40625 6.160156 L 128.40625 181 L 13.214844 181 Z M 13.214844 6.160156 " clip-rule="nonzero"/></clipPath></defs><g fill="#342924" fill-opacity="1"><g transform="translate(134.571841, 62.766234)"><g><path d="M 19.804688 0.726562 C 30.433594 0.726562 35.53125 -6.117188 35.53125 -16.164062 L 25.921875 -16.164062 C 25.921875 -10.921875 23.882812 -8.738281 19.804688 -8.738281 C 15.800781 -8.738281 13.761719 -10.921875 13.761719 -16.164062 L 13.761719 -32.546875 C 13.761719 -37.789062 15.800781 -39.972656 19.878906 -39.972656 C 23.882812 -39.972656 25.921875 -37.789062 25.921875 -32.546875 L 35.53125 -32.546875 C 35.53125 -42.59375 30.433594 -49.4375 19.878906 -49.4375 C 9.246094 -49.4375 4.148438 -42.59375 4.148438 -32.546875 L 4.148438 -16.164062 C 4.148438 -6.117188 9.246094 0.726562 19.804688 0.726562 Z M 19.804688 0.726562 "/></g></g></g><g fill="#342924" fill-opacity="1"><g transform="translate(172.720086, 62.766234)"><g><path d="M 19.078125 0.726562 C 29.707031 0.726562 34.804688 -6.117188 34.804688 -16.164062 L 34.804688 -32.546875 C 34.804688 -42.59375 29.707031 -49.4375 19.078125 -49.4375 C 8.519531 -49.4375 3.421875 -42.59375 3.421875 -32.546875 L 3.421875 -16.164062 C 3.421875 -6.117188 8.519531 0.726562 19.078125 0.726562 Z M 19.078125 -8.738281 C 15.070312 -8.738281 13.03125 -10.921875 13.03125 -16.164062 L 13.03125 -32.546875 C 13.03125 -37.789062 15.070312 -39.972656 19.078125 -39.972656 C 23.152344 -39.972656 25.191406 -37.789062 25.191406 -32.546875 L 25.191406 -16.164062 C 25.191406 -10.921875 23.152344 -8.738281 19.078125 -8.738281 Z M 19.078125 -8.738281 "/></g></g></g><g fill="#342924" fill-opacity="1"><g transform="translate(210.868332, 62.766234)"><g><path d="M 7.789062 -48.785156 L 7.789062 0 L 17.402344 0 L 17.402344 -19.949219 L 30.214844 -19.949219 L 30.214844 -29.34375 L 17.402344 -29.34375 L 17.402344 -39.316406 L 32.253906 -39.316406 L 32.253906 -48.785156 Z M 7.789062 -48.785156 "/></g></g></g><g fill="#342924" fill-opacity="1"><g transform="translate(249.016577, 62.766234)"><g><path d="M 7.789062 -48.785156 L 7.789062 0 L 17.402344 0 L 17.402344 -19.949219 L 30.214844 -19.949219 L 30.214844 -29.34375 L 17.402344 -29.34375 L 17.402344 -39.316406 L 32.253906 -39.316406 L 32.253906 -48.785156 Z M 7.789062 -48.785156 "/></g></g></g><g fill="#342924" fill-opacity="1"><g transform="translate(287.164822, 62.766234)"><g><path d="M 7.136719 -48.785156 L 7.136719 0 L 31.601562 0 L 31.601562 -9.464844 L 16.671875 -9.464844 L 16.671875 -19.949219 L 29.632812 -19.949219 L 29.632812 -29.34375 L 16.671875 -29.34375 L 16.671875 -39.316406 L 31.601562 -39.316406 L 31.601562 -48.785156 Z M 7.136719 -48.785156 "/></g></g></g><g fill="#342924" fill-opacity="1"><g transform="translate(325.313068, 62.766234)"><g><path d="M 7.136719 -48.785156 L 7.136719 0 L 31.601562 0 L 31.601562 -9.464844 L 16.671875 -9.464844 L 16.671875 -19.949219 L 29.632812 -19.949219 L 29.632812 -29.34375 L 16.671875 -29.34375 L 16.671875 -39.316406 L 31.601562 -39.316406 L 31.601562 -48.785156 Z M 7.136719 -48.785156 "/></g></g></g><g fill="#342924" fill-opacity="1"><g transform="translate(224.635327, 126.921965)"><g><path d="M 2.433594 -37.941406 L 2.433594 -30.582031 L 11.15625 -30.582031 L 11.15625 0 L 18.574219 0 L 18.574219 -30.582031 L 27.296875 -30.582031 L 27.296875 -37.941406 Z M 2.433594 -37.941406 "/></g></g></g><g fill="#342924" fill-opacity="1"><g transform="translate(254.30753, 126.921965)"><g><path d="M 14.835938 0.566406 C 23.105469 0.566406 27.070312 -4.757812 27.070312 -12.570312 L 27.070312 -25.3125 C 27.070312 -33.128906 23.105469 -38.453125 14.835938 -38.453125 C 6.625 -38.453125 2.660156 -33.128906 2.660156 -25.3125 L 2.660156 -12.570312 C 2.660156 -4.757812 6.625 0.566406 14.835938 0.566406 Z M 14.835938 -6.796875 C 11.722656 -6.796875 10.136719 -8.496094 10.136719 -12.570312 L 10.136719 -25.3125 C 10.136719 -29.390625 11.722656 -31.089844 14.835938 -31.089844 C 18.007812 -31.089844 19.59375 -29.390625 19.59375 -25.3125 L 19.59375 -12.570312 C 19.59375 -8.496094 18.007812 -6.796875 14.835938 -6.796875 Z M 14.835938 -6.796875 "/></g></g></g><g fill="#342924" fill-opacity="1"><g transform="translate(283.979734, 126.921965)"><g/></g></g><g fill="#342924" fill-opacity="1"><g transform="translate(299.835115, 126.921965)"><g><path d="M 15.175781 0.566406 C 23.445312 0.566406 27.410156 -4.757812 27.410156 -12.570312 L 27.410156 -19.933594 L 15.175781 -19.933594 L 15.175781 -13.476562 L 19.992188 -13.476562 L 19.992188 -12.515625 C 19.992188 -8.550781 18.347656 -6.796875 15.175781 -6.796875 C 12.0625 -6.796875 10.476562 -8.550781 10.476562 -12.570312 L 10.476562 -25.3125 C 10.476562 -29.390625 12.0625 -31.148438 15.234375 -31.148438 C 18.347656 -31.148438 19.992188 -29.390625 19.992188 -25.3125 L 27.410156 -25.3125 C 27.410156 -33.128906 23.445312 -38.453125 15.234375 -38.453125 C 6.964844 -38.453125 3 -33.128906 3 -25.3125 L 3 -12.570312 C 3 -4.757812 6.964844 0.566406 15.175781 0.566406 Z M 15.175781 0.566406 "/></g></g></g><g fill="#342924" fill-opacity="1"><g transform="translate(329.507318, 126.921965)"><g><path d="M 14.835938 0.566406 C 23.105469 0.566406 27.070312 -4.757812 27.070312 -12.570312 L 27.070312 -25.3125 C 27.070312 -33.128906 23.105469 -38.453125 14.835938 -38.453125 C 6.625 -38.453125 2.660156 -33.128906 2.660156 -25.3125 L 2.660156 -12.570312 C 2.660156 -4.757812 6.625 0.566406 14.835938 0.566406 Z M 14.835938 -6.796875 C 11.722656 -6.796875 10.136719 -8.496094 10.136719 -12.570312 L 10.136719 -25.3125 C 10.136719 -29.390625 11.722656 -31.089844 14.835938 -31.089844 C 18.007812 -31.089844 19.59375 -29.390625 19.59375 -25.3125 L 19.59375 -12.570312 C 19.59375 -8.496094 18.007812 -6.796875 14.835938 -6.796875 Z M 14.835938 -6.796875 "/></g></g></g><path stroke-linecap="butt" transform="matrix(4.143402, 0, 0, 4.556298, 142.719765, 113.594512)" fill="none" stroke-linejoin="miter" d="M -0.000245037 -0.000167183 L 16.437788 -0.000167183 " stroke="#342924" stroke-width="1" stroke-opacity="1" stroke-miterlimit="4"/><g fill="#342924" fill-opacity="1"><g transform="translate(133.226103, 172.394689)"><g><path d="M 3.171875 -21.679688 L 3.171875 0 L 14.042969 0 L 14.042969 -4.207031 L 7.410156 -4.207031 L 7.410156 -8.867188 L 13.171875 -8.867188 L 13.171875 -13.039062 L 7.410156 -13.039062 L 7.410156 -17.472656 L 14.042969 -17.472656 L 14.042969 -21.679688 Z M 3.171875 -21.679688 "/></g></g></g><g fill="#342924" fill-opacity="1"><g transform="translate(160.210002, 172.394689)"><g><path d="M 8.605469 0.324219 C 12.554688 0.324219 15.660156 -1.714844 15.660156 -5.953125 C 15.660156 -9.480469 14.109375 -11.519531 10.710938 -12.585938 L 7.765625 -13.492188 C 6.859375 -13.753906 6.019531 -14.398438 6.019531 -15.597656 C 6.019531 -17.117188 7.28125 -17.765625 8.640625 -17.765625 C 10.324219 -17.765625 11.390625 -16.761719 11.390625 -15.113281 L 15.628906 -15.113281 C 15.628906 -19.414062 13.007812 -21.972656 8.640625 -21.972656 C 5.273438 -21.972656 1.714844 -20.03125 1.714844 -15.628906 C 1.714844 -12.683594 3.332031 -10.386719 6.472656 -9.417969 L 9.417969 -8.511719 C 10.582031 -8.15625 11.421875 -7.410156 11.421875 -6.148438 C 11.421875 -4.757812 10.515625 -3.882812 8.511719 -3.882812 C 6.699219 -3.882812 5.597656 -5.015625 5.597656 -6.828125 L 1.359375 -6.828125 C 1.359375 -2.363281 4.078125 0.324219 8.605469 0.324219 Z M 8.605469 0.324219 "/></g></g></g><g fill="#342924" fill-opacity="1"><g transform="translate(187.193902, 172.394689)"><g><path d="M 1.390625 -21.679688 L 1.390625 -17.472656 L 6.375 -17.472656 L 6.375 0 L 10.613281 0 L 10.613281 -17.472656 L 15.597656 -17.472656 L 15.597656 -21.679688 Z M 1.390625 -21.679688 "/></g></g></g><g fill="#342924" fill-opacity="1"><g transform="translate(214.177801, 172.394689)"><g><path d="M 11.035156 0 L 11.035156 -5.273438 L 5.953125 -5.273438 L 5.953125 0 Z M 11.035156 0 "/></g></g></g><g fill="#342924" fill-opacity="1"><g transform="translate(241.161701, 172.394689)"><g/></g></g><g fill="#342924" fill-opacity="1"><g transform="translate(260.251894, 172.394689)"><g><path d="M 15.078125 -15.015625 C 15.078125 -19.382812 12.585938 -21.972656 8.476562 -21.972656 C 4.464844 -21.972656 1.8125 -19.414062 1.8125 -15.597656 L 6.050781 -15.597656 C 6.050781 -17.117188 7.023438 -18.152344 8.476562 -18.152344 C 10 -18.152344 10.839844 -17.117188 10.839844 -15.207031 C 10.839844 -12.265625 8.832031 -9.804688 1.8125 -3.785156 L 1.8125 0.03125 L 15.078125 0.03125 L 15.078125 -3.785156 L 7.570312 -3.785156 C 13.882812 -9.09375 15.078125 -12.265625 15.078125 -15.015625 Z M 15.078125 -15.015625 "/></g></g></g><g fill="#342924" fill-opacity="1"><g transform="translate(287.235794, 172.394689)"><g><path d="M 8.476562 0.324219 C 12.8125 0.324219 15.015625 -2.070312 15.015625 -6.796875 L 15.015625 -14.851562 C 15.015625 -19.578125 12.8125 -21.972656 8.476562 -21.972656 C 4.140625 -21.972656 1.941406 -19.578125 1.941406 -14.851562 L 1.941406 -6.796875 C 1.941406 -2.070312 4.140625 0.324219 8.476562 0.324219 Z M 8.476562 -3.496094 C 6.859375 -3.496094 6.179688 -4.269531 6.179688 -6.277344 L 6.179688 -15.371094 C 6.179688 -17.375 6.859375 -18.152344 8.476562 -18.152344 C 10.097656 -18.152344 10.777344 -17.375 10.777344 -15.371094 L 10.777344 -6.277344 C 10.777344 -4.269531 10.097656 -3.496094 8.476562 -3.496094 Z M 8.476562 -3.496094 "/></g></g></g><g fill="#342924" fill-opacity="1"><g transform="translate(314.219693, 172.394689)"><g><path d="M 15.078125 -15.015625 C 15.078125 -19.382812 12.585938 -21.972656 8.476562 -21.972656 C 4.464844 -21.972656 1.8125 -19.414062 1.8125 -15.597656 L 6.050781 -15.597656 C 6.050781 -17.117188 7.023438 -18.152344 8.476562 -18.152344 C 10 -18.152344 10.839844 -17.117188 10.839844 -15.207031 C 10.839844 -12.265625 8.832031 -9.804688 1.8125 -3.785156 L 1.8125 0.03125 L 15.078125 0.03125 L 15.078125 -3.785156 L 7.570312 -3.785156 C 13.882812 -9.09375 15.078125 -12.265625 15.078125 -15.015625 Z M 15.078125 -15.015625 "/></g></g></g><g fill="#342924" fill-opacity="1"><g transform="translate(341.203593, 172.394689)"><g><path d="M 15.078125 -15.015625 C 15.078125 -19.382812 12.585938 -21.972656 8.476562 -21.972656 C 4.464844 -21.972656 1.8125 -19.414062 1.8125 -15.597656 L 6.050781 -15.597656 C 6.050781 -17.117188 7.023438 -18.152344 8.476562 -18.152344 C 10 -18.152344 10.839844 -17.117188 10.839844 -15.207031 C 10.839844 -12.265625 8.832031 -9.804688 1.8125 -3.785156 L 1.8125 0.03125 L 15.078125 0.03125 L 15.078125 -3.785156 L 7.570312 -3.785156 C 13.882812 -9.09375 15.078125 -12.265625 15.078125 -15.015625 Z M 15.078125 -15.015625 "/></g></g></g><g clip-path="url(#id1)"><path fill="#342924" d="M 120.757812 30.753906 C 106.8125 29.894531 91.660156 29.183594 75.308594 28.628906 C 58.742188 28.070312 41.007812 27.667969 22.109375 27.421875 L 24.332031 18.8125 C 26.402344 18.75 28.46875 18.695312 30.523438 18.648438 L 30.539062 18.652344 L 30.574219 18.648438 L 30.59375 18.648438 C 44.472656 18.347656 57.992188 18.429688 71.636719 18.882812 C 87.152344 19.398438 102.875 20.398438 119.519531 21.863281 Z M 110.96875 136.5 L 119.59375 74.292969 L 117.285156 70.5625 L 117.238281 70.527344 C 85.414062 70.648438 54.003906 69.691406 23.015625 67.65625 L 20.554688 70.71875 L 27.9375 134.351562 C 41.507812 137.941406 55.175781 139.925781 68.941406 140.300781 C 82.851562 140.679688 96.863281 139.414062 110.96875 136.5 Z M 23.199219 65.632812 C 22.59375 59.660156 22.023438 53.882812 21.585938 49.464844 C 21.210938 45.625 20.933594 42.851562 20.777344 41.398438 C 38.839844 42.996094 56.140625 44.15625 72.667969 44.882812 C 89.152344 45.605469 104.925781 45.898438 119.992188 45.761719 L 116.746094 68.457031 C 85.128906 68.578125 53.945312 67.632812 23.199219 65.632812 Z M 106.570312 139.542969 C 94.132812 141.765625 81.761719 142.707031 69.457031 142.371094 C 56.636719 142.023438 43.882812 140.28125 31.199219 137.152344 C 32.035156 143.761719 32.878906 150.160156 33.746094 156.332031 C 34.597656 162.425781 35.472656 168.28125 36.367188 173.882812 C 45.328125 176.875 55.175781 178.523438 65.898438 178.824219 C 76.832031 179.128906 88.675781 178.039062 101.417969 175.546875 Z M 85.519531 91.859375 C 81.902344 88.269531 76.863281 86.050781 71.273438 86.050781 C 65.605469 86.050781 60.46875 88.332031 56.75 92.019531 C 53.066406 95.675781 50.785156 100.695312 50.785156 106.214844 C 50.785156 111.554688 52.960938 116.386719 56.472656 119.867188 C 60.09375 123.460938 65.128906 125.679688 70.722656 125.679688 C 76.390625 125.679688 81.527344 123.398438 85.246094 119.710938 C 88.925781 116.054688 91.207031 111.035156 91.207031 105.511719 C 91.207031 100.191406 89.046875 95.378906 85.558594 91.894531 Z M 70.722656 83.984375 C 64.78125 83.984375 59.402344 86.371094 55.515625 90.226562 C 51.59375 94.117188 49.164062 99.523438 49.164062 105.511719 C 49.164062 111.683594 51.699219 117.28125 55.792969 121.339844 C 59.78125 125.296875 65.257812 127.746094 71.273438 127.746094 C 77.210938 127.746094 82.589844 125.359375 86.476562 121.503906 C 90.398438 117.609375 92.828125 112.207031 92.828125 106.214844 C 92.828125 100.066406 90.3125 94.488281 86.25 90.4375 L 86.203125 90.386719 C 82.214844 86.433594 76.738281 83.984375 70.722656 83.984375 Z M 29.589844 16.59375 L 31.953125 6.65625 C 32.03125 6.316406 32.285156 6.15625 32.582031 6.214844 L 47.894531 7.988281 C 48.320312 8.039062 48.761719 8.535156 48.878906 9.101562 C 49.464844 12.007812 49.089844 14.808594 49.007812 16.03125 C 48.570312 14.621094 48.078125 12.597656 47.527344 9.957031 L 33.402344 8.320312 L 31.445312 16.550781 C 37.339844 16.433594 43.179688 16.386719 48.992188 16.40625 C 48.992188 16.308594 48.996094 16.179688 49.007812 16.03125 L 49.128906 16.40625 L 49.519531 16.410156 L 49.613281 16.410156 C 56.792969 16.441406 63.941406 16.578125 71.125 16.816406 C 87 17.34375 103.015625 18.371094 119.933594 19.871094 C 120.363281 19.90625 120.8125 20.402344 120.9375 20.972656 L 122.320312 30.851562 C 123.972656 30.957031 125.613281 31.0625 127.234375 31.167969 C 127.660156 31.199219 128.113281 31.683594 128.242188 32.253906 C 128.289062 32.453125 128.289062 32.640625 128.25 32.792969 L 125.464844 45.238281 C 125.398438 45.542969 125.195312 45.703125 124.941406 45.699219 L 121.726562 45.742188 C 121.726562 45.792969 121.722656 45.839844 121.714844 45.890625 L 118.332031 69.527344 L 121.023438 73.882812 C 121.214844 74.191406 121.292969 74.542969 121.257812 74.824219 L 112.503906 137.949219 C 112.464844 138.246094 112.300781 138.429688 112.085938 138.476562 C 110.839844 138.738281 109.59375 138.984375 108.351562 139.21875 C 108.347656 139.265625 108.34375 139.3125 108.335938 139.355469 L 102.949219 177.003906 C 102.910156 177.277344 102.761719 177.480469 102.527344 177.527344 C 89.5625 180.082031 77.523438 181.207031 66.417969 180.898438 C 55.296875 180.585938 45.097656 178.832031 35.8125 175.648438 C 35.402344 175.527344 35.015625 175.03125 34.929688 174.496094 C 33.976562 168.585938 33.054688 162.414062 32.152344 155.992188 C 31.289062 149.835938 30.441406 143.414062 29.601562 136.75 C 28.855469 136.558594 28.109375 136.363281 27.363281 136.160156 C 26.925781 136.042969 26.519531 135.5 26.457031 134.949219 L 18.902344 69.902344 C 18.867188 69.601562 18.9375 69.355469 19.082031 69.210938 L 21.675781 65.984375 C 20.933594 58.667969 20.390625 53.175781 19.980469 49.007812 C 19.621094 45.378906 19.359375 42.714844 19.203125 41.253906 L 14.917969 40.867188 C 14.488281 40.828125 14.042969 40.332031 13.921875 39.761719 L 13.890625 39.542969 L 13.316406 28.070312 C 13.292969 27.617188 13.519531 27.324219 13.851562 27.328125 C 16 27.347656 18.132812 27.371094 20.25 27.398438 L 22.882812 17.191406 C 22.957031 16.902344 23.15625 16.75 23.394531 16.753906 C 25.46875 16.691406 27.535156 16.636719 29.589844 16.59375 Z M 19.273438 39.238281 C 19.378906 39.152344 19.519531 39.113281 19.683594 39.140625 C 19.8125 39.164062 19.9375 39.222656 20.054688 39.308594 C 38.148438 40.914062 55.523438 42.082031 72.167969 42.8125 C 90.375 43.613281 107.652344 43.886719 124 43.636719 L 126.347656 33.144531 L 121.976562 32.863281 C 121.941406 32.867188 121.902344 32.863281 121.863281 32.855469 C 107.722656 31.976562 92.375 31.257812 75.820312 30.695312 C 57.160156 30.0625 36.875 29.632812 14.964844 29.402344 L 15.445312 38.894531 L 19.273438 39.238281 " fill-opacity="1" fill-rule="evenodd"/></g></svg>